{
  "accessors": [
    {
      "bufferView": 2,
      "componentType": 5126,
      "count": 65532,
      "max": [
        1.0540800094604492,
        1.071113109588623,
        0.9818007349967957
      ],
      "min": [
        -1.0552977323532104,
        -1.0540202856063843,
        -0.9818006753921509
      ],
      "type": "VEC3"
    },
    {
      "bufferView": 2,
      "byteOffset": 786384,
      "componentType": 5126,
      "count": 65532,
      "max": [
        1.0,
        1.0,
        0.9995554685592651
      ],
      "min": [
        -1.0,
        -1.0,
        -0.9995554685592651
      ],
      "type": "VEC3"
    },
    {
      "bufferView": 3,
      "componentType": 5126,
      "count": 65532,
      "max": [
        0.9999998807907104,
        1.0,
        1.0,
        1.0
      ],
      "min": [
        -1.0,
        -1.0,
        -1.0,
        -1.0
      ],
      "type": "VEC4"
    },
    {
      "bufferView": 1,
      "componentType": 5126,
      "count": 65532,
      "max": [
        1.0000001192092896,
        1.0000001192092896
      ],
      "min": [
        0.0,
        0.0012881606817245483
      ],
      "type": "VEC2"
    },
    {
      "bufferView": 0,
      "componentType": 5125,
      "count": 327840,
      "type": "SCALAR"
    },
    {
      "bufferView": 2,
      "byteOffset": 1572768,
      "componentType": 5126,
      "count": 65532,
      "max": [
        1.0711978673934937,
        1.071034550666809,
        0.965846061706543
      ],
      "min": [
        -1.0711877346038818,
        -1.071156620979309,
        -0.626081645488739
      ],
      "type": "VEC3"
    },
    {
      "bufferView": 2,
      "byteOffset": 2359152,
      "componentType": 5126,
      "count": 65532,
      "max": [
        0.9999992251396179,
        0.999998152256012,
        0.9797868728637695
      ],
      "min": [
        -0.9999997615814209,
        -0.9999992251396179,
        -0.34575584530830383
      ],
      "type": "VEC3"
    },
    {
      "bufferView": 3,
      "byteOffset": 1048512,
      "componentType": 5126,
      "count": 65532,
      "max": [
        1.0,
        1.0,
        0.22839325666427612,
        1.0
      ],
      "min": [
        -1.0,
        -1.0,
        -0.235612690448761,
        1.0
      ],
      "type": "VEC4"
    },
    {
      "bufferView": 1,
      "byteOffset": 524256,
      "componentType": 5126,
      "count": 65532,
      "max": [
        0.9941408038139343,
        1.0000001192092896
      ],
      "min": [
        0.0,
        0.59375
      ],
      "type": "VEC2"
    },
    {
      "bufferView": 0,
      "byteOffset": 1311360,
      "componentType": 5125,
      "count": 380652,
      "type": "SCALAR"
    },
    {
      "bufferView": 2,
      "byteOffset": 3145536,
      "componentType": 5126,
      "count": 43693,
      "max": [
        1.0632895231246948,
        1.0664360523223877,
        0.9658461213111877
      ],
      "min": [
        -1.0654945373535156,
        -1.063485026359558,
        -0.6258653998374939
      ],
      "type": "VEC3"
    },
    {
      "bufferView": 2,
      "byteOffset": 3669852,
      "componentType": 5126,
      "count": 43693,
      "max": [
        0.9999767541885376,
        0.9999166131019592,
        0.9797884821891785
      ],
      "min": [
        -0.9999971985816956,
        -0.9999433755874634,
        -0.26849719882011414
      ],
      "type": "VEC3"
    },
    {
      "bufferView": 3,
      "byteOffset": 2097024,
      "componentType": 5126,
      "count": 43693,
      "max": [
        1.0,
        1.0,
        0.2977026104927063,
        1.0
      ],
      "min": [
        -1.0,
        -0.9999999403953552,
        -0.2532031238079071,
        1.0
      ],
      "type": "VEC4"
    },
    {
      "bufferView": 1,
      "byteOffset": 1048512,
      "componentType": 5126,
      "count": 43693,
      "max": [
        0.9785158038139343,
        1.0000001192092896
      ],
      "min": [
        0.0,
        0.59375
      ],
      "type": "VEC2"
    },
    {
      "bufferView": 0,
      "byteOffset": 2833968,
      "componentType": 5125,
      "count": 249972,
      "type": "SCALAR"
    },
    {
      "bufferView": 2,
      "byteOffset": 4194168,
      "componentType": 5126,
      "count": 65532,
      "max": [
        1.0561894178390503,
        1.057036280632019,
        0.15614159405231476
      ],
      "min": [
        -1.0506871938705444,
        -1.051529884338379,
        -1.1919196844100952
      ],
      "type": "VEC3"
    },
    {
      "bufferView": 2,
      "byteOffset": 4980552,
      "componentType": 5126,
      "count": 65532,
      "max": [
        1.0,
        1.0,
        1.0
      ],
      "min": [
        -1.0,
        -1.0,
        -1.0
      ],
      "type": "VEC3"
    },
    {
      "bufferView": 3,
      "byteOffset": 2796112,
      "componentType": 5126,
      "count": 65532,
      "max": [
        1.0,
        1.0,
        1.0,
        1.0
      ],
      "min": [
        -1.0,
        -1.0,
        -1.0,
        -1.0
      ],
      "type": "VEC4"
    },
    {
      "bufferView": 1,
      "byteOffset": 1398056,
      "componentType": 5126,
      "count": 65532,
      "max": [
        1.000000238418579,
        0.9876781702041626
      ],
      "min": [
        0.0,
        0.0
      ],
      "type": "VEC2"
    },
    {
      "bufferView": 0,
      "byteOffset": 3833856,
      "componentType": 5125,
      "count": 349200,
      "type": "SCALAR"
    },
    {
      "bufferView": 2,
      "byteOffset": 5766936,
      "componentType": 5126,
      "count": 61241,
      "max": [
        0.9957249760627747,
        1.0354714393615723,
        0.15614160895347595
      ],
      "min": [
        -1.0561895370483398,
        -1.057036280632019,
        -1.1919196844100952
      ],
      "type": "VEC3"
    },
    {
      "bufferView": 2,
      "byteOffset": 6501828,
      "componentType": 5126,
      "count": 61241,
      "max": [
        1.0,
        1.0,
        1.0
      ],
      "min": [
        -1.0,
        -1.0,
        -1.0
      ],
      "type": "VEC3"
    },
    {
      "bufferView": 3,
      "byteOffset": 3844624,
      "componentType": 5126,
      "count": 61241,
      "max": [
        1.0,
        1.0,
        1.0,
        1.0
      ],
      "min": [
        -0.9999960064888,
        -1.0,
        -1.0,
        -1.0
      ],
      "type": "VEC4"
    },
    {
      "bufferView": 1,
      "byteOffset": 1922312,
      "componentType": 5126,
      "count": 61241,
      "max": [
        1.000000238418579,
        0.9876781702041626
      ],
      "min": [
        0.0,
        0.0
      ],
      "type": "VEC2"
    },
    {
      "bufferView": 0,
      "byteOffset": 5230656,
      "componentType": 5125,
      "count": 319344,
      "type": "SCALAR"
    },
    {
      "bufferView": 2,
      "byteOffset": 7236720,
      "componentType": 5126,
      "count": 20098,
      "max": [
        0.9613437652587891,
        0.9990537762641907,
        0.09979794919490814
      ],
      "min": [
        -0.9613437652587891,
        -0.9990537762641907,
        0.021307241171598434
      ],
      "type": "VEC3"
    },
    {
      "bufferView": 2,
      "byteOffset": 7477896,
      "componentType": 5126,
      "count": 20098,
      "max": [
        1.0,
        1.0,
        1.0
      ],
      "min": [
        -1.0,
        -1.0,
        -4.265571988071315e-05
      ],
      "type": "VEC3"
    },
    {
      "bufferView": 3,
      "byteOffset": 4824480,
      "componentType": 5126,
      "count": 20098,
      "max": [
        0.9999972581863403,
        1.0,
        0.9527014493942261,
        1.0
      ],
      "min": [
        -0.9999972581863403,
        -1.0,
        -0.9527069926261902,
        -1.0
      ],
      "type": "VEC4"
    },
    {
      "bufferView": 1,
      "byteOffset": 2412240,
      "componentType": 5126,
      "count": 20098,
      "max": [
        0.7091521620750427,
        0.810387372970581
      ],
      "min": [
        0.0669320821762085,
        0.7812597155570984
      ],
      "type": "VEC2"
    },
    {
      "bufferView": 0,
      "byteOffset": 6508032,
      "componentType": 5125,
      "count": 99840,
      "type": "SCALAR"
    }
  ],
  "asset": {
    "extras": {
      "author": "BlackWΛVΞ (https://sketchfab.com/_BlackWAVE_)",
      "license": "CC-BY-4.0 (http://creativecommons.org/licenses/by/4.0/)",
      "source": "https://sketchfab.com/3d-models/off-road-wheel-and-tire-55d34c3b12244a20a36a9221af2b2253",
      "title": "Off-Road Wheel and Tire"
    },
    "generator": "Sketchfab-15.55.0",
    "version": "2.0"
  },
  "bufferViews": [
    {
      "buffer": 0,
      "byteLength": 6907392,
      "name": "floatBufferViews",
      "target": 34963
    },
    {
      "buffer": 0,
      "byteLength": 2573024,
      "byteOffset": 6907392,
      "byteStride": 8,
      "name": "floatBufferViews",
      "target": 34962
    },
    {
      "buffer": 0,
      "byteLength": 7719072,
      "byteOffset": 9480416,
      "byteStride": 12,
      "name": "floatBufferViews",
      "target": 34962
    },
    {
      "buffer": 0,
      "byteLength": 5146048,
      "byteOffset": 17199488,
      "byteStride": 16,
      "name": "floatBufferViews",
      "target": 34962
    }
  ],
  "buffers": [
    {
      "byteLength": 22345536,
      "uri": "scene.bin"
    }
  ],
  "extensionsUsed": [
    "KHR_materials_specular"
  ],
  "images": [
    {
      "uri": "textures/Tire_baseColor.png"
    },
    {
      "uri": "textures/Tire_metallicRoughness.png"
    },
    {
      "uri": "textures/Tire_normal.png"
    },
    {
      "uri": "textures/Tire_specularf0.png"
    },
    {
      "uri": "textures/Wheel_baseColor.png"
    },
    {
      "uri": "textures/Wheel_metallicRoughness.png"
    },
    {
      "uri": "textures/Wheel_normal.png"
    },
    {
      "uri": "textures/Wheel_specularf0.png"
    },
    {
      "uri": "textures/Bolts_baseColor.png"
    },
    {
      "uri": "textures/Bolts_metallicRoughness.png"
    },
    {
      "uri": "textures/Bolts_normal.png"
    },
    {
      "uri": "textures/Bolts_specularf0.png"
    }
  ],
  "materials": [
    {
      "doubleSided": true,
      "extensions": {
        "KHR_materials_specular": {
          "specularColorFactor": [
            1.0,
            1.0,
            1.0
          ],
          "specularFactor": 1.0,
          "specularTexture": {
            "index": 3
          }
        }
      },
      "name": "Tire",
      "normalTexture": {
        "index": 2
      },
      "occlusionTexture": {
        "index": 1
      },
      "pbrMetallicRoughness": {
        "baseColorTexture": {
          "index": 0
        },
        "metallicFactor": 0.0,
        "metallicRoughnessTexture": {
          "index": 1
        },
        "roughnessFactor": 0.8883836598359156
      }
    },
    {
      "doubleSided": true,
      "extensions": {
        "KHR_materials_specular": {
          "specularColorFactor": [
            1.0,
            1.0,
            1.0
          ],
          "specularFactor": 1.0,
          "specularTexture": {
            "index": 7
          }
        }
      },
      "name": "Wheel",
      "normalTexture": {
        "index": 6
      },
      "occlusionTexture": {
        "index": 5
      },
      "pbrMetallicRoughness": {
        "baseColorTexture": {
          "index": 4
        },
        "metallicFactor": 0.9188599431922078,
        "metallicRoughnessTexture": {
          "index": 5
        }
      }
    },
    {
      "doubleSided": true,
      "extensions": {
        "KHR_materials_specular": {
          "specularColorFactor": [
            1.0,
            1.0,
            1.0
          ],
          "specularFactor": 1.0,
          "specularTexture": {
            "index": 11
          }
        }
      },
      "name": "Bolts",
      "normalTexture": {
        "index": 10
      },
      "pbrMetallicRoughness": {
        "baseColorTexture": {
          "index": 8
        },
        "metallicRoughnessTexture": {
          "index": 9
        }
      }
    }
  ],
  "meshes": [
    {
      "name": "Tire_Tire_0",
      "primitives": [
        {
          "attributes": {
            "NORMAL": 1,
            "POSITION": 0,
            "TANGENT": 2,
            "TEXCOORD_0": 3
          },
          "indices": 4,
          "material": 0,
          "mode": 4
        }
      ]
    },
    {
      "name": "Tire_Tire_0",
      "primitives": [
        {
          "attributes": {
            "NORMAL": 6,
            "POSITION": 5,
            "TANGENT": 7,
            "TEXCOORD_0": 8
          },
          "indices": 9,
          "material": 0,
          "mode": 4
        }
      ]
    },
    {
      "name": "Tire_Tire_0",
      "primitives": [
        {
          "attributes": {
            "NORMAL": 11,
            "POSITION": 10,
            "TANGENT": 12,
            "TEXCOORD_0": 13
          },
          "indices": 14,
          "material": 0,
          "mode": 4
        }
      ]
    },
    {
      "name": "wheel_Wheel_0",
      "primitives": [
        {
          "attributes": {
            "NORMAL": 16,
            "POSITION": 15,
            "TANGENT": 17,
            "TEXCOORD_0": 18
          },
          "indices": 19,
          "material": 1,
          "mode": 4
        }
      ]
    },
    {
      "name": "wheel_Wheel_0",
      "primitives": [
        {
          "attributes": {
            "NORMAL": 21,
            "POSITION": 20,
            "TANGENT": 22,
            "TEXCOORD_0": 23
          },
          "indices": 24,
          "material": 1,
          "mode": 4
        }
      ]
    },
    {
      "name": "wheel_Bolts_0",
      "primitives": [
        {
          "attributes": {
            "NORMAL": 26,
            "POSITION": 25,
            "TANGENT": 27,
            "TEXCOORD_0": 28
          },
          "indices": 29,
          "material": 2,
          "mode": 4
        }
      ]
    }
  ],
  "nodes": [
    {
      "children": [
        1
      ],
      "matrix": [
        1.0,
        0.0,
        0.0,
        0.0,
        0.0,
        2.220446049250313e-16,
        -1.0,
        0.0,
        0.0,
        1.0,
        2.220446049250313e-16,
        0.0,
        0.0,
        0.0,
        0.0,
        1.0
      ],
      "name": "Sketchfab_model"
    },
    {
      "children": [
        2
      ],
      "matrix": [
        0.009999999776482582,
        0.0,
        0.0,
        0.0,
        0.0,
        -0.009999999776482582,
        0.0,
        0.0,
        0.0,
        0.0,
        -0.009999999776482582,
        0.0,
        0.0,
        0.0,
        0.0,
        1.0
      ],
      "name": "wheel.fbx"
    },
    {
      "children": [
        3,
        7
      ],
      "name": "RootNode"
    },
    {
      "children": [
        4,
        5,
        6
      ],
      "matrix": [
        191.76829528808594,
        0.0,
        0.0,
        0.0,
        0.0,
        3.733866565837038e-05,
        191.76829528808233,
        0.0,
        0.0,
        -68.27050018310418,
        1.3292757162164019e-05,
        0.0,
        0.0,
        0.0,
        0.0,
        1.0
      ],
      "name": "Tire"
    },
    {
      "mesh": 0,
      "name": "Tire_Tire_0"
    },
    {
      "mesh": 1,
      "name": "Tire_Tire_0"
    },
    {
      "mesh": 2,
      "name": "Tire_Tire_0"
    },
    {
      "children": [
        8,
        9,
        10
      ],
      "matrix": [
        100.0,
        0.0,
        0.0,
        0.0,
        0.0,
        1.9470718870540082e-05,
        99.99999999999811,
        0.0,
        0.0,
        -99.99999999999811,
        1.9470718870540082e-05,
        0.0,
        0.0,
        -59.05540084838867,
        0.0,
        1.0
      ],
      "name": "wheel"
    },
    {
      "mesh": 3,
      "name": "wheel_Wheel_0"
    },
    {
      "mesh": 4,
      "name": "wheel_Wheel_0"
    },
    {
      "mesh": 5,
      "name": "wheel_Bolts_0"
    }
  ],
  "samplers": [
    {
      "magFilter": 9729,
      "minFilter": 9987,
      "wrapS": 10497,
      "wrapT": 10497
    }
  ],
  "scene": 0,
  "scenes": [
    {
      "name": "Sketchfab_Scene",
      "nodes": [
        0
      ]
    }
  ],
  "textures": [
    {
      "sampler": 0,
      "source": 0
    },
    {
      "sampler": 0,
      "source": 1
    },
    {
      "sampler": 0,
      "source": 2
    },
    {
      "sampler": 0,
      "source": 3
    },
    {
      "sampler": 0,
      "source": 4
    },
    {
      "sampler": 0,
      "source": 5
    },
    {
      "sampler": 0,
      "source": 6
    },
    {
      "sampler": 0,
      "source": 7
    },
    {
      "sampler": 0,
      "source": 8
    },
    {
      "sampler": 0,
      "source": 9
    },
    {
      "sampler": 0,
      "source": 10
    },
    {
      "sampler": 0,
      "source": 11
    }
  ]
}
