{
  "accessors": [
    {
      "bufferView": 2,
      "componentType": 5126,
      "count": 134,
      "max": [
        1.3030579090118408,
        1.276897668838501,
        1.4479734897613525
      ],
      "min": [
        -1.1540029048919678,
        -1.276897668838501,
        0
      ],
      "type": "VEC3"
    },
    {
      "bufferView": 2,
      "byteOffset": 1608,
      "componentType": 5126,
      "count": 134,
      "max": [
        0.9808182120323181,
        0.9808182120323181,
        0.9798354506492615
      ],
      "min": [
        -0.9808182120323181,
        -0.9808182120323181,
        -0.9989150166511536
      ],
      "type": "VEC3"
    },
    {
      "bufferView": 1,
      "componentType": 5126,
      "count": 134,
      "max": [
        0.56229168176651,
        0.7529263496398926
      ],
      "min": [
        0.42499732971191406,
        0.2683790326118469
      ],
      "type": "VEC2"
    },
    {
      "bufferView": 0,
      "componentType": 5125,
      "count": 768,
      "type": "SCALAR"
    },
    {
      "bufferView": 2,
      "byteOffset": 3216,
      "componentType": 5126,
      "count": 608,
      "max": [
        0.9188417196273804,
        0.7857978343963623,
        0.395175039768219
      ],
      "min": [
        -0.8598824143409729,
        -0.8408986330032349,
        -0.06603775173425674
      ],
      "type": "VEC3"
    },
    {
      "bufferView": 2,
      "byteOffset": 10512,
      "componentType": 5126,
      "count": 608,
      "max": [
        0.9990979433059692,
        0.9995584487915039,
        0.8860723376274109
      ],
      "min": [
        -0.9990979433059692,
        -0.9995584487915039,
        -0.9225590825080872
      ],
      "type": "VEC3"
    },
    {
      "bufferView": 1,
      "byteOffset": 1072,
      "componentType": 5126,
      "count": 608,
      "max": [
        0.7226256132125854,
        0.8076639175415039
      ],
      "min": [
        0.6157142519950867,
        0.3780882954597473
      ],
      "type": "VEC2"
    },
    {
      "bufferView": 0,
      "byteOffset": 3072,
      "componentType": 5125,
      "count": 2880,
      "type": "SCALAR"
    },
    {
      "bufferView": 2,
      "byteOffset": 17808,
      "componentType": 5126,
      "count": 110,
      "max": [
        0.35749393701553345,
        0.20465125143527985,
        0.597320020198822
      ],
      "min": [
        -0.8825053572654724,
        -1.0311353206634521,
        0.2264610230922699
      ],
      "type": "VEC3"
    },
    {
      "bufferView": 2,
      "byteOffset": 19128,
      "componentType": 5126,
      "count": 110,
      "max": [
        0.939494252204895,
        0.9549599289894104,
        0.9989811778068542
      ],
      "min": [
        -0.9395021796226501,
        -0.9549599289894104,
        -0.9989811778068542
      ],
      "type": "VEC3"
    },
    {
      "bufferView": 1,
      "byteOffset": 5936,
      "componentType": 5126,
      "count": 110,
      "max": [
        1,
        0.4723820090293884
      ],
      "min": [
        0,
        0
      ],
      "type": "VEC2"
    },
    {
      "bufferView": 0,
      "byteOffset": 14592,
      "componentType": 5125,
      "count": 300,
      "type": "SCALAR"
    },
    {
      "bufferView": 2,
      "byteOffset": 20448,
      "componentType": 5126,
      "count": 209,
      "max": [
        0.20192646980285645,
        -1.0171544551849365,
        1.040351152420044
      ],
      "min": [
        -0.16945087909698486,
        -2.8651046752929688,
        0.6602771282196045
      ],
      "type": "VEC3"
    },
    {
      "bufferView": 2,
      "byteOffset": 22956,
      "componentType": 5126,
      "count": 209,
      "max": [
        0.9679657220840454,
        1,
        0.9958931803703308
      ],
      "min": [
        -0.9789716005325317,
        -1,
        -0.9891579151153564
      ],
      "type": "VEC3"
    },
    {
      "bufferView": 1,
      "byteOffset": 6816,
      "componentType": 5126,
      "count": 209,
      "max": [
        0.5573873519897461,
        0.7840741872787476
      ],
      "min": [
        0.4346529245376587,
        0.36979952454566956
      ],
      "type": "VEC2"
    },
    {
      "bufferView": 0,
      "byteOffset": 15792,
      "componentType": 5125,
      "count": 834,
      "type": "SCALAR"
    },
    {
      "bufferView": 2,
      "byteOffset": 25464,
      "componentType": 5126,
      "count": 173,
      "max": [
        1.1465339660644531,
        0.8702804446220398,
        2.0854830741882324
      ],
      "min": [
        -0.8892033100128174,
        -0.8702805042266846,
        0.4341435432434082
      ],
      "type": "VEC3"
    },
    {
      "bufferView": 2,
      "byteOffset": 27540,
      "componentType": 5126,
      "count": 173,
      "max": [
        0.9581272602081299,
        0.9399709105491638,
        0.9919822812080383
      ],
      "min": [
        -0.9875564575195312,
        -0.9828134179115295,
        -0.9919822812080383
      ],
      "type": "VEC3"
    },
    {
      "bufferView": 1,
      "byteOffset": 8488,
      "componentType": 5126,
      "count": 173,
      "max": [
        1,
        0.4723820090293884
      ],
      "min": [
        0,
        0
      ],
      "type": "VEC2"
    },
    {
      "bufferView": 0,
      "byteOffset": 19128,
      "componentType": 5125,
      "count": 588,
      "type": "SCALAR"
    },
    {
      "bufferView": 2,
      "byteOffset": 29616,
      "componentType": 5126,
      "count": 890,
      "max": [
        1.006094217300415,
        0.36730170249938965,
        1.9218003749847412
      ],
      "min": [
        -0.6482087969779968,
        -0.9545872211456299,
        1.0715504884719849
      ],
      "type": "VEC3"
    },
    {
      "bufferView": 2,
      "byteOffset": 40296,
      "componentType": 5126,
      "count": 890,
      "max": [
        0.9998867511749268,
        0.9968388676643372,
        0.9998281002044678
      ],
      "min": [
        -0.9989972710609436,
        -0.9928070902824402,
        -0.9999192953109741
      ],
      "type": "VEC3"
    },
    {
      "bufferView": 1,
      "byteOffset": 9872,
      "componentType": 5126,
      "count": 890,
      "max": [
        0.10482785105705261,
        0.21634040772914886
      ],
      "min": [
        0.0631028264760971,
        0.04762210696935654
      ],
      "type": "VEC2"
    },
    {
      "bufferView": 0,
      "byteOffset": 21480,
      "componentType": 5125,
      "count": 5172,
      "type": "SCALAR"
    },
    {
      "bufferView": 2,
      "byteOffset": 50976,
      "componentType": 5126,
      "count": 370,
      "max": [
        -0.15852245688438416,
        0.8822672367095947,
        1.836451530456543
      ],
      "min": [
        -0.8440974950790405,
        -0.5052960515022278,
        1.0650060176849365
      ],
      "type": "VEC3"
    },
    {
      "bufferView": 2,
      "byteOffset": 55416,
      "componentType": 5126,
      "count": 370,
      "max": [
        0.9995601177215576,
        0.9945619702339172,
        0.9988569617271423
      ],
      "min": [
        -0.9995601177215576,
        -0.9945619702339172,
        -0.9988569617271423
      ],
      "type": "VEC3"
    },
    {
      "bufferView": 1,
      "byteOffset": 16992,
      "componentType": 5126,
      "count": 370,
      "max": [
        0.18291747570037842,
        0.7568253874778748
      ],
      "min": [
        0.052464909851551056,
        0.37571555376052856
      ],
      "type": "VEC2"
    },
    {
      "bufferView": 0,
      "byteOffset": 42168,
      "componentType": 5125,
      "count": 1800,
      "type": "SCALAR"
    },
    {
      "bufferView": 2,
      "byteOffset": 59856,
      "componentType": 5126,
      "count": 844,
      "max": [
        0.9309889078140259,
        0.8513215184211731,
        1.956040859222412
      ],
      "min": [
        -0.4055613577365875,
        -0.6327946186065674,
        0.6208521127700806
      ],
      "type": "VEC3"
    },
    {
      "bufferView": 2,
      "byteOffset": 69984,
      "componentType": 5126,
      "count": 844,
      "max": [
        0.9956181645393372,
        0.9979568123817444,
        0.9907967448234558
      ],
      "min": [
        -0.9999872446060181,
        -0.9993866682052612,
        -0.9861323237419128
      ],
      "type": "VEC3"
    },
    {
      "bufferView": 1,
      "byteOffset": 19952,
      "componentType": 5126,
      "count": 844,
      "max": [
        0.3652624189853668,
        0.8021328449249268
      ],
      "min": [
        0.2564440667629242,
        0.26736119389533997
      ],
      "type": "VEC2"
    },
    {
      "bufferView": 0,
      "byteOffset": 49368,
      "componentType": 5125,
      "count": 2448,
      "type": "SCALAR"
    },
    {
      "bufferView": 2,
      "byteOffset": 80112,
      "componentType": 5126,
      "count": 144,
      "max": [
        0.9222601652145386,
        0.771874189376831,
        1.9277541637420654
      ],
      "min": [
        -0.4055613577365875,
        -0.5605241060256958,
        0.6273525357246399
      ],
      "type": "VEC3"
    },
    {
      "bufferView": 2,
      "byteOffset": 81840,
      "componentType": 5126,
      "count": 144,
      "max": [
        0.9956181645393372,
        0.36204785108566284,
        0.9646445512771606
      ],
      "min": [
        -0.9999872446060181,
        -0.3666292130947113,
        -0.9724547863006592
      ],
      "type": "VEC3"
    },
    {
      "bufferView": 1,
      "byteOffset": 26704,
      "componentType": 5126,
      "count": 144,
      "max": [
        0.8962759971618652,
        0.7901803851127625
      ],
      "min": [
        0.8004047870635986,
        0.32771044969558716
      ],
      "type": "VEC2"
    },
    {
      "bufferView": 0,
      "byteOffset": 59160,
      "componentType": 5125,
      "count": 384,
      "type": "SCALAR"
    },
    {
      "bufferView": 2,
      "byteOffset": 83568,
      "componentType": 5126,
      "count": 208,
      "max": [
        0.9309889078140259,
        0.8332622051239014,
        1.956040859222412
      ],
      "min": [
        -0.3975333571434021,
        -0.5613728165626526,
        0.6960257887840271
      ],
      "type": "VEC3"
    },
    {
      "bufferView": 2,
      "byteOffset": 86064,
      "componentType": 5126,
      "count": 208,
      "max": [
        0.9815921187400818,
        0.7979872822761536,
        0.9907967448234558
      ],
      "min": [
        -0.7673426270484924,
        -0.5753171443939209,
        -0.04327619820833206
      ],
      "type": "VEC3"
    },
    {
      "bufferView": 1,
      "byteOffset": 27856,
      "componentType": 5126,
      "count": 208,
      "max": [
        0.3533244729042053,
        0.801998496055603
      ],
      "min": [
        0.2564440667629242,
        0.4650125205516815
      ],
      "type": "VEC2"
    },
    {
      "bufferView": 0,
      "byteOffset": 60696,
      "componentType": 5125,
      "count": 288,
      "type": "SCALAR"
    },
    {
      "bufferView": 2,
      "byteOffset": 88560,
      "componentType": 5126,
      "count": 420,
      "max": [
        0.9007773399353027,
        0.681614100933075,
        1.9883413314819336
      ],
      "min": [
        -0.31665533781051636,
        -0.5377052426338196,
        0.843920111656189
      ],
      "type": "VEC3"
    },
    {
      "bufferView": 2,
      "byteOffset": 93600,
      "componentType": 5126,
      "count": 420,
      "max": [
        0.991741418838501,
        0.9900089502334595,
        0.9823766946792603
      ],
      "min": [
        -0.991741418838501,
        -0.9900089502334595,
        -0.9823766946792603
      ],
      "type": "VEC3"
    },
    {
      "bufferView": 1,
      "byteOffset": 29520,
      "componentType": 5126,
      "count": 420,
      "max": [
        0.875,
        1
      ],
      "min": [
        0.125,
        0.25
      ],
      "type": "VEC2"
    },
    {
      "bufferView": 0,
      "byteOffset": 61848,
      "componentType": 5125,
      "count": 1032,
      "type": "SCALAR"
    }
  ],
  "asset": {
    "extras": {
      "author": "Liberi Arcano (https://sketchfab.com/LiberiArcano)",
      "license": "CC-BY-4.0 (http://creativecommons.org/licenses/by/4.0/)",
      "source": "https://sketchfab.com/3d-models/3december-2021-day-9-cooking-8f36a5348ed54ebf95fbd0e4611a47f7",
      "title": "3December 2021 Day 9: Cooking"
    },
    "generator": "Sketchfab-12.67.0",
    "version": "2.0"
  },
  "bufferViews": [
    {
      "buffer": 0,
      "byteLength": 65976,
      "name": "floatBufferViews",
      "target": 34963,
      "byteOffset": 0
    },
    {
      "buffer": 0,
      "byteLength": 32880,
      "byteOffset": 65976,
      "byteStride": 8,
      "name": "floatBufferViews",
      "target": 34962
    },
    {
      "buffer": 0,
      "byteLength": 98640,
      "byteOffset": 98856,
      "byteStride": 12,
      "name": "floatBufferViews",
      "target": 34962
    }
  ],
  "buffers": [
    {
      "uri": "3december_2021_day_9_cooking_data.bin",
      "byteLength": 197496
    }
  ],
  "images": [
    {
      "uri": "textures/3december_2021_day_9_cooking_img0.png"
    }
  ],
  "materials": [
    {
      "doubleSided": true,
      "name": "FryingPan",
      "pbrMetallicRoughness": {
        "baseColorTexture": {
          "index": 0
        },
        "metallicFactor": 0.6935761979453934
      }
    },
    {
      "doubleSided": true,
      "emissiveFactor": [
        1,
        0.3964532139382302,
        0.034485589259152453
      ],
      "name": "Fire",
      "pbrMetallicRoughness": {
        "baseColorTexture": {
          "index": 0
        },
        "metallicFactor": 0
      }
    },
    {
      "doubleSided": true,
      "emissiveFactor": [
        1,
        1,
        0.2403185895978716
      ],
      "name": "Sparks",
      "pbrMetallicRoughness": {
        "baseColorFactor": [
          0.38317899999999994,
          0.09739150000000006,
          0,
          1
        ],
        "metallicFactor": 0
      }
    },
    {
      "doubleSided": true,
      "name": "FryingPan_Handle",
      "pbrMetallicRoughness": {
        "baseColorTexture": {
          "index": 0
        },
        "metallicFactor": 0.7117842799060397
      }
    },
    {
      "alphaMode": "BLEND",
      "doubleSided": true,
      "name": "material",
      "pbrMetallicRoughness": {
        "baseColorFactor": [
          1,
          0.43012279913889456,
          0.028863290822882727,
          0.3476226406931143
        ],
        "metallicFactor": 0,
        "roughnessFactor": 0.47636590035397175
      }
    },
    {
      "doubleSided": true,
      "name": "Herbs",
      "pbrMetallicRoughness": {
        "baseColorTexture": {
          "index": 0
        },
        "metallicFactor": 0
      }
    },
    {
      "doubleSided": true,
      "name": "Potato",
      "pbrMetallicRoughness": {
        "baseColorTexture": {
          "index": 0
        },
        "metallicFactor": 0
      }
    },
    {
      "doubleSided": true,
      "name": "Salmon_Base",
      "pbrMetallicRoughness": {
        "baseColorFactor": [
          0.5457159999999996,
          0.07717189999999997,
          0.010836200000000018,
          1
        ],
        "metallicFactor": 0
      }
    },
    {
      "doubleSided": true,
      "name": "Salmon_Tender",
      "pbrMetallicRoughness": {
        "baseColorFactor": [
          0.8,
          0.393748,
          0.352205,
          1
        ],
        "metallicFactor": 0
      }
    },
    {
      "doubleSided": true,
      "name": "White",
      "pbrMetallicRoughness": {
        "baseColorFactor": [
          0.8,
          0.8,
          0.8,
          1
        ],
        "metallicFactor": 0
      }
    },
    {
      "doubleSided": true,
      "name": "Seeds",
      "pbrMetallicRoughness": {
        "baseColorFactor": [
          0.0535908,
          0.0535908,
          0.0535908,
          1
        ],
        "metallicFactor": 0
      }
    }
  ],
  "meshes": [
    {
      "name": "Cylinder.018_FryingPan_0",
      "primitives": [
        {
          "attributes": {
            "NORMAL": 1,
            "POSITION": 0,
            "TEXCOORD_0": 2
          },
          "indices": 3,
          "material": 0,
          "mode": 4
        }
      ]
    },
    {
      "name": "Cylinder.018_Fire_0",
      "primitives": [
        {
          "attributes": {
            "NORMAL": 5,
            "POSITION": 4,
            "TEXCOORD_0": 6
          },
          "indices": 7,
          "material": 1,
          "mode": 4
        }
      ]
    },
    {
      "name": "Cylinder.018_Sparks_0",
      "primitives": [
        {
          "attributes": {
            "NORMAL": 9,
            "POSITION": 8,
            "TEXCOORD_0": 10
          },
          "indices": 11,
          "material": 2,
          "mode": 4
        }
      ]
    },
    {
      "name": "Cylinder.018_FryingPan_Handle_0",
      "primitives": [
        {
          "attributes": {
            "NORMAL": 13,
            "POSITION": 12,
            "TEXCOORD_0": 14
          },
          "indices": 15,
          "material": 3,
          "mode": 4
        }
      ]
    },
    {
      "name": "Cylinder.018_Oil_0",
      "primitives": [
        {
          "attributes": {
            "NORMAL": 17,
            "POSITION": 16,
            "TEXCOORD_0": 18
          },
          "indices": 19,
          "material": 4,
          "mode": 4
        }
      ]
    },
    {
      "name": "Cylinder.018_Herbs_0",
      "primitives": [
        {
          "attributes": {
            "NORMAL": 21,
            "POSITION": 20,
            "TEXCOORD_0": 22
          },
          "indices": 23,
          "material": 5,
          "mode": 4
        }
      ]
    },
    {
      "name": "Cylinder.018_Potato_0",
      "primitives": [
        {
          "attributes": {
            "NORMAL": 25,
            "POSITION": 24,
            "TEXCOORD_0": 26
          },
          "indices": 27,
          "material": 6,
          "mode": 4
        }
      ]
    },
    {
      "name": "Cylinder.018_Salmon_Base_0",
      "primitives": [
        {
          "attributes": {
            "NORMAL": 29,
            "POSITION": 28,
            "TEXCOORD_0": 30
          },
          "indices": 31,
          "material": 7,
          "mode": 4
        }
      ]
    },
    {
      "name": "Cylinder.018_Salmon_Tender_0",
      "primitives": [
        {
          "attributes": {
            "NORMAL": 33,
            "POSITION": 32,
            "TEXCOORD_0": 34
          },
          "indices": 35,
          "material": 8,
          "mode": 4
        }
      ]
    },
    {
      "name": "Cylinder.018_White_0",
      "primitives": [
        {
          "attributes": {
            "NORMAL": 37,
            "POSITION": 36,
            "TEXCOORD_0": 38
          },
          "indices": 39,
          "material": 9,
          "mode": 4
        }
      ]
    },
    {
      "name": "Cylinder.018_Seeds_0",
      "primitives": [
        {
          "attributes": {
            "NORMAL": 41,
            "POSITION": 40,
            "TEXCOORD_0": 42
          },
          "indices": 43,
          "material": 10,
          "mode": 4
        }
      ]
    }
  ],
  "nodes": [
    {
      "children": [
        1
      ],
      "matrix": [
        1,
        0,
        0,
        0,
        0,
        2.220446049250313e-16,
        -1,
        0,
        0,
        1,
        2.220446049250313e-16,
        0,
        0,
        0,
        0,
        1
      ],
      "name": "Sketchfab_model"
    },
    {
      "children": [
        2
      ],
      "matrix": [
        0.009999999776482582,
        0,
        0,
        0,
        0,
        0,
        0.009999999776482582,
        0,
        0,
        -0.009999999776482582,
        0,
        0,
        0,
        0,
        0,
        1
      ],
      "name": "b6a8b5a8db3a437288af11c320ff3c97.fbx"
    },
    {
      "children": [
        3
      ],
      "name": "RootNode"
    },
    {
      "children": [
        4,
        5,
        6,
        7,
        8,
        9,
        10,
        11,
        12,
        13,
        14
      ],
      "matrix": [
        -99.99999999999885,
        1.2246469849340659e-14,
        0.000015099579909783702,
        0,
        0.000015099579909783661,
        0.000007549789993177569,
        99.99999999999856,
        0,
        -1.127740100078761e-12,
        99.9999999999997,
        -0.000007549789970973109,
        0,
        0,
        0,
        0,
        1
      ],
      "name": "Cylinder.018"
    },
    {
      "mesh": 0,
      "name": "Cylinder.018_FryingPan_0"
    },
    {
      "mesh": 1,
      "name": "Cylinder.018_Fire_0"
    },
    {
      "mesh": 2,
      "name": "Cylinder.018_Sparks_0"
    },
    {
      "mesh": 3,
      "name": "Cylinder.018_FryingPan_Handle_0"
    },
    {
      "mesh": 4,
      "name": "Cylinder.018_Oil_0"
    },
    {
      "mesh": 5,
      "name": "Cylinder.018_Herbs_0"
    },
    {
      "mesh": 6,
      "name": "Cylinder.018_Potato_0"
    },
    {
      "mesh": 7,
      "name": "Cylinder.018_Salmon_Base_0"
    },
    {
      "mesh": 8,
      "name": "Cylinder.018_Salmon_Tender_0"
    },
    {
      "mesh": 9,
      "name": "Cylinder.018_White_0"
    },
    {
      "mesh": 10,
      "name": "Cylinder.018_Seeds_0"
    }
  ],
  "samplers": [
    {
      "magFilter": 9729,
      "minFilter": 9987,
      "wrapS": 10497,
      "wrapT": 10497
    }
  ],
  "scene": 0,
  "scenes": [
    {
      "name": "Sketchfab_Scene",
      "nodes": [
        0
      ]
    }
  ],
  "textures": [
    {
      "sampler": 0,
      "source": 0
    }
  ]
}